solid OpenSCAD_Model
  facet normal 0.2334453658323966 -0.972369919923163 0
    outer loop
      vertex 36.027050986886024 -47.95316954702139 -34.1
      vertex 35.56930339336395 -48.06306502223015 -32.7
      vertex 35.56930339336395 -48.06306502223015 -34.1
    endloop
  endfacet
  facet normal 0.2334453658323966 -0.972369919923163 0
    outer loop
      vertex 36.027050986886024 -47.95316954702139 -34.1
      vertex 36.027050986886024 -47.95316954702139 -32.7
      vertex 35.56930339336395 -48.06306502223015 -32.7
    endloop
  endfacet
  facet normal 0.38268342829682256 -0.9238795341964182 0
    outer loop
      vertex 36.46197149902582 -47.77301957458258 -34.1
      vertex 36.027050986886024 -47.95316954702139 -32.7
      vertex 36.027050986886024 -47.95316954702139 -34.1
    endloop
  endfacet
  facet normal 0.38268342829682256 -0.9238795341964182 0
    outer loop
      vertex 36.46197149902582 -47.77301957458258 -34.1
      vertex 36.46197149902582 -47.77301957458258 -32.7
      vertex 36.027050986886024 -47.95316954702139 -32.7
    endloop
  endfacet
  facet normal 0.5224985628546074 -0.8526401654947237 0
    outer loop
      vertex 36.86335575580597 -47.527050986886024 -34.1
      vertex 36.46197149902582 -47.77301957458258 -32.7
      vertex 36.46197149902582 -47.77301957458258 -34.1
    endloop
  endfacet
  facet normal 0.5224985628546074 -0.8526401654947237 0
    outer loop
      vertex 36.86335575580597 -47.527050986886024 -34.1
      vertex 36.86335575580597 -47.527050986886024 -32.7
      vertex 36.46197149902582 -47.77301957458258 -32.7
    endloop
  endfacet
  facet normal 0.6494480462734546 -0.7604059673566436 0
    outer loop
      vertex 37.22132034599781 -47.22132034599781 -34.1
      vertex 36.86335575580597 -47.527050986886024 -32.7
      vertex 36.86335575580597 -47.527050986886024 -34.1
    endloop
  endfacet
  facet normal 0.6494480462734546 -0.7604059673566436 0
    outer loop
      vertex 37.22132034599781 -47.22132034599781 -34.1
      vertex 37.22132034599781 -47.22132034599781 -32.7
      vertex 36.86335575580597 -47.527050986886024 -32.7
    endloop
  endfacet
  facet normal 0.7604059673566436 -0.6494480462734546 0
    outer loop
      vertex 37.527050986886024 -46.86335575580597 -34.1
      vertex 37.22132034599781 -47.22132034599781 -32.7
      vertex 37.22132034599781 -47.22132034599781 -34.1
    endloop
  endfacet
  facet normal 0.7604059673566436 -0.6494480462734546 0
    outer loop
      vertex 37.527050986886024 -46.86335575580597 -34.1
      vertex 37.527050986886024 -46.86335575580597 -32.7
      vertex 37.22132034599781 -47.22132034599781 -32.7
    endloop
  endfacet
  facet normal 0.8526401654947238 -0.5224985628546074 0
    outer loop
      vertex 37.77301957458258 -46.46197149902582 -34.1
      vertex 37.527050986886024 -46.86335575580597 -32.7
      vertex 37.527050986886024 -46.86335575580597 -34.1
    endloop
  endfacet
  facet normal 0.8526401654947238 -0.5224985628546074 0
    outer loop
      vertex 37.77301957458258 -46.46197149902582 -34.1
      vertex 37.77301957458258 -46.46197149902582 -32.7
      vertex 37.527050986886024 -46.86335575580597 -32.7
    endloop
  endfacet
  facet normal 0.9238795341964182 -0.38268342829682256 0
    outer loop
      vertex 37.95316954702139 -46.027050986886024 -34.1
      vertex 37.77301957458258 -46.46197149902582 -32.7
      vertex 37.77301957458258 -46.46197149902582 -34.1
    endloop
  endfacet
  facet normal 0.9238795341964182 -0.38268342829682256 0
    outer loop
      vertex 37.95316954702139 -46.027050986886024 -34.1
      vertex 37.95316954702139 -46.027050986886024 -32.7
      vertex 37.77301957458258 -46.46197149902582 -32.7
    endloop
  endfacet
  facet normal 0.972369919923163 -0.2334453658323966 0
    outer loop
      vertex 38.06306502223015 -45.56930339336395 -34.1
      vertex 37.95316954702139 -46.027050986886024 -32.7
      vertex 37.95316954702139 -46.027050986886024 -34.1
    endloop
  endfacet
  facet normal 0.972369919923163 -0.2334453658323966 0
    outer loop
      vertex 38.06306502223015 -45.56930339336395 -34.1
      vertex 38.06306502223015 -45.56930339336395 -32.7
      vertex 37.95316954702139 -46.027050986886024 -32.7
    endloop
  endfacet
  facet normal 0.9969173335169774 -0.0784590984742992 0
    outer loop
      vertex 38.100000001490116 -45.100000001490116 -34.1
      vertex 38.06306502223015 -45.56930339336395 -32.7
      vertex 38.06306502223015 -45.56930339336395 -34.1
    endloop
  endfacet
  facet normal 0.9969173335169774 -0.0784590984742992 0
    outer loop
      vertex 38.100000001490116 -45.100000001490116 -34.1
      vertex 38.100000001490116 -45.100000001490116 -32.7
      vertex 38.06306502223015 -45.56930339336395 -32.7
    endloop
  endfacet
  facet normal 1 0 0
    outer loop
      vertex 38.100000001490116 45.100000001490116 -34.1
      vertex 38.100000001490116 -45.100000001490116 -32.7
      vertex 38.100000001490116 -45.100000001490116 -34.1
    endloop
  endfacet
  facet normal 1 0 0
    outer loop
      vertex 38.100000001490116 45.100000001490116 -34.1
      vertex 38.100000001490116 45.100000001490116 -32.7
      vertex 38.100000001490116 -45.100000001490116 -32.7
    endloop
  endfacet
  facet normal 0.9969173335169774 0.0784590984742992 0
    outer loop
      vertex 38.06306502223015 45.56930339336395 -34.1
      vertex 38.100000001490116 45.100000001490116 -32.7
      vertex 38.100000001490116 45.100000001490116 -34.1
    endloop
  endfacet
  facet normal 0.9969173335169774 0.0784590984742992 0
    outer loop
      vertex 38.06306502223015 45.56930339336395 -34.1
      vertex 38.06306502223015 45.56930339336395 -32.7
      vertex 38.100000001490116 45.100000001490116 -32.7
    endloop
  endfacet
  facet normal 0.972369919923163 0.2334453658323966 0
    outer loop
      vertex 37.95316954702139 46.027050986886024 -34.1
      vertex 38.06306502223015 45.56930339336395 -32.7
      vertex 38.06306502223015 45.56930339336395 -34.1
    endloop
  endfacet
  facet normal 0.972369919923163 0.2334453658323966 0
    outer loop
      vertex 37.95316954702139 46.027050986886024 -34.1
      vertex 37.95316954702139 46.027050986886024 -32.7
      vertex 38.06306502223015 45.56930339336395 -32.7
    endloop
  endfacet
  facet normal 0.9238795341964182 0.38268342829682256 0
    outer loop
      vertex 37.77301957458258 46.46197149902582 -34.1
      vertex 37.95316954702139 46.027050986886024 -32.7
      vertex 37.95316954702139 46.027050986886024 -34.1
    endloop
  endfacet
  facet normal 0.9238795341964182 0.38268342829682256 0
    outer loop
      vertex 37.77301957458258 46.46197149902582 -34.1
      vertex 37.77301957458258 46.46197149902582 -32.7
      vertex 37.95316954702139 46.027050986886024 -32.7
    endloop
  endfacet
  facet normal 0.8526401654947238 0.5224985628546074 0
    outer loop
      vertex 37.527050986886024 46.86335575580597 -34.1
      vertex 37.77301957458258 46.46197149902582 -32.7
      vertex 37.77301957458258 46.46197149902582 -34.1
    endloop
  endfacet
  facet normal 0.8526401654947238 0.5224985628546074 0
    outer loop
      vertex 37.527050986886024 46.86335575580597 -34.1
      vertex 37.527050986886024 46.86335575580597 -32.7
      vertex 37.77301957458258 46.46197149902582 -32.7
    endloop
  endfacet
  facet normal 0.7604059673566436 0.6494480462734546 0
    outer loop
      vertex 37.22132034599781 47.22132034599781 -34.1
      vertex 37.527050986886024 46.86335575580597 -32.7
      vertex 37.527050986886024 46.86335575580597 -34.1
    endloop
  endfacet
  facet normal 0.7604059673566436 0.6494480462734546 0
    outer loop
      vertex 37.22132034599781 47.22132034599781 -34.1
      vertex 37.22132034599781 47.22132034599781 -32.7
      vertex 37.527050986886024 46.86335575580597 -32.7
    endloop
  endfacet
  facet normal 0.6494480462734546 0.7604059673566436 0
    outer loop
      vertex 36.86335575580597 47.527050986886024 -34.1
      vertex 37.22132034599781 47.22132034599781 -32.7
      vertex 37.22132034599781 47.22132034599781 -34.1
    endloop
  endfacet
  facet normal 0.6494480462734546 0.7604059673566436 0
    outer loop
      vertex 36.86335575580597 47.527050986886024 -34.1
      vertex 36.86335575580597 47.527050986886024 -32.7
      vertex 37.22132034599781 47.22132034599781 -32.7
    endloop
  endfacet
  facet normal 0.5224985628546074 0.8526401654947237 0
    outer loop
      vertex 36.46197149902582 47.77301957458258 -34.1
      vertex 36.86335575580597 47.527050986886024 -32.7
      vertex 36.86335575580597 47.527050986886024 -34.1
    endloop
  endfacet
  facet normal 0.5224985628546074 0.8526401654947237 0
    outer loop
      vertex 36.46197149902582 47.77301957458258 -34.1
      vertex 36.46197149902582 47.77301957458258 -32.7
      vertex 36.86335575580597 47.527050986886024 -32.7
    endloop
  endfacet
  facet normal 0.38268342829682256 0.9238795341964182 0
    outer loop
      vertex 36.027050986886024 47.95316954702139 -34.1
      vertex 36.46197149902582 47.77301957458258 -32.7
      vertex 36.46197149902582 47.77301957458258 -34.1
    endloop
  endfacet
  facet normal 0.38268342829682256 0.9238795341964182 0
    outer loop
      vertex 36.027050986886024 47.95316954702139 -34.1
      vertex 36.027050986886024 47.95316954702139 -32.7
      vertex 36.46197149902582 47.77301957458258 -32.7
    endloop
  endfacet
  facet normal 0.2334453658323966 0.972369919923163 0
    outer loop
      vertex 35.56930339336395 48.06306502223015 -34.1
      vertex 36.027050986886024 47.95316954702139 -32.7
      vertex 36.027050986886024 47.95316954702139 -34.1
    endloop
  endfacet
  facet normal 0.2334453658323966 0.972369919923163 0
    outer loop
      vertex 35.56930339336395 48.06306502223015 -34.1
      vertex 35.56930339336395 48.06306502223015 -32.7
      vertex 36.027050986886024 47.95316954702139 -32.7
    endloop
  endfacet
  facet normal 0.0784590984742992 0.9969173335169774 0
    outer loop
      vertex 35.100000001490116 48.100000001490116 -34.1
      vertex 35.56930339336395 48.06306502223015 -32.7
      vertex 35.56930339336395 48.06306502223015 -34.1
    endloop
  endfacet
  facet normal 0.0784590984742992 0.9969173335169774 0
    outer loop
      vertex 35.100000001490116 48.100000001490116 -34.1
      vertex 35.100000001490116 48.100000001490116 -32.7
      vertex 35.56930339336395 48.06306502223015 -32.7
    endloop
  endfacet
  facet normal 0 1 0
    outer loop
      vertex -35.100000001490116 48.100000001490116 -34.1
      vertex 35.100000001490116 48.100000001490116 -32.7
      vertex 35.100000001490116 48.100000001490116 -34.1
    endloop
  endfacet
  facet normal 0 1 0
    outer loop
      vertex -35.100000001490116 48.100000001490116 -34.1
      vertex -35.100000001490116 48.100000001490116 -32.7
      vertex 35.100000001490116 48.100000001490116 -32.7
    endloop
  endfacet
  facet normal -0.0784590984742992 0.9969173335169774 0
    outer loop
      vertex -35.56930339336395 48.06306502223015 -34.1
      vertex -35.100000001490116 48.100000001490116 -32.7
      vertex -35.100000001490116 48.100000001490116 -34.1
    endloop
  endfacet
  facet normal -0.0784590984742992 0.9969173335169774 0
    outer loop
      vertex -35.56930339336395 48.06306502223015 -34.1
      vertex -35.56930339336395 48.06306502223015 -32.7
      vertex -35.100000001490116 48.100000001490116 -32.7
    endloop
  endfacet
  facet normal -0.2334453658323966 0.972369919923163 0
    outer loop
      vertex -36.027050986886024 47.95316954702139 -34.1
      vertex -35.56930339336395 48.06306502223015 -32.7
      vertex -35.56930339336395 48.06306502223015 -34.1
    endloop
  endfacet
  facet normal -0.2334453658323966 0.972369919923163 0
    outer loop
      vertex -36.027050986886024 47.95316954702139 -34.1
      vertex -36.027050986886024 47.95316954702139 -32.7
      vertex -35.56930339336395 48.06306502223015 -32.7
    endloop
  endfacet
  facet normal -0.38268342829682256 0.9238795341964182 0
    outer loop
      vertex -36.46197149902582 47.77301957458258 -34.1
      vertex -36.027050986886024 47.95316954702139 -32.7
      vertex -36.027050986886024 47.95316954702139 -34.1
    endloop
  endfacet
  facet normal -0.38268342829682256 0.9238795341964182 0
    outer loop
      vertex -36.46197149902582 47.77301957458258 -34.1
      vertex -36.46197149902582 47.77301957458258 -32.7
      vertex -36.027050986886024 47.95316954702139 -32.7
    endloop
  endfacet
  facet normal -0.5224985628546074 0.8526401654947237 0
    outer loop
      vertex -36.86335575580597 47.527050986886024 -34.1
      vertex -36.46197149902582 47.77301957458258 -32.7
      vertex -36.46197149902582 47.77301957458258 -34.1
    endloop
  endfacet
  facet normal -0.5224985628546074 0.8526401654947237 0
    outer loop
      vertex -36.86335575580597 47.527050986886024 -34.1
      vertex -36.86335575580597 47.527050986886024 -32.7
      vertex -36.46197149902582 47.77301957458258 -32.7
    endloop
  endfacet
  facet normal -0.6494480462734546 0.7604059673566436 0
    outer loop
      vertex -37.22132034599781 47.22132034599781 -34.1
      vertex -36.86335575580597 47.527050986886024 -32.7
      vertex -36.86335575580597 47.527050986886024 -34.1
    endloop
  endfacet
  facet normal -0.6494480462734546 0.7604059673566436 0
    outer loop
      vertex -37.22132034599781 47.22132034599781 -34.1
      vertex -37.22132034599781 47.22132034599781 -32.7
      vertex -36.86335575580597 47.527050986886024 -32.7
    endloop
  endfacet
  facet normal -0.7604059673566436 0.6494480462734546 0
    outer loop
      vertex -37.527050986886024 46.86335575580597 -34.1
      vertex -37.22132034599781 47.22132034599781 -32.7
      vertex -37.22132034599781 47.22132034599781 -34.1
    endloop
  endfacet
  facet normal -0.7604059673566436 0.6494480462734546 0
    outer loop
      vertex -37.527050986886024 46.86335575580597 -34.1
      vertex -37.527050986886024 46.86335575580597 -32.7
      vertex -37.22132034599781 47.22132034599781 -32.7
    endloop
  endfacet
  facet normal -0.8526401654947238 0.5224985628546074 0
    outer loop
      vertex -37.77301957458258 46.46197149902582 -34.1
      vertex -37.527050986886024 46.86335575580597 -32.7
      vertex -37.527050986886024 46.86335575580597 -34.1
    endloop
  endfacet
  facet normal -0.8526401654947238 0.5224985628546074 0
    outer loop
      vertex -37.77301957458258 46.46197149902582 -34.1
      vertex -37.77301957458258 46.46197149902582 -32.7
      vertex -37.527050986886024 46.86335575580597 -32.7
    endloop
  endfacet
  facet normal -0.9238795341964182 0.38268342829682256 0
    outer loop
      vertex -37.95316954702139 46.027050986886024 -34.1
      vertex -37.77301957458258 46.46197149902582 -32.7
      vertex -37.77301957458258 46.46197149902582 -34.1
    endloop
  endfacet
  facet normal -0.9238795341964182 0.38268342829682256 0
    outer loop
      vertex -37.95316954702139 46.027050986886024 -34.1
      vertex -37.95316954702139 46.027050986886024 -32.7
      vertex -37.77301957458258 46.46197149902582 -32.7
    endloop
  endfacet
  facet normal -0.972369919923163 0.2334453658323966 0
    outer loop
      vertex -38.06306502223015 45.56930339336395 -34.1
      vertex -37.95316954702139 46.027050986886024 -32.7
      vertex -37.95316954702139 46.027050986886024 -34.1
    endloop
  endfacet
  facet normal -0.972369919923163 0.2334453658323966 0
    outer loop
      vertex -38.06306502223015 45.56930339336395 -34.1
      vertex -38.06306502223015 45.56930339336395 -32.7
      vertex -37.95316954702139 46.027050986886024 -32.7
    endloop
  endfacet
  facet normal -0.9969173335169774 0.0784590984742992 0
    outer loop
      vertex -38.100000001490116 45.100000001490116 -34.1
      vertex -38.06306502223015 45.56930339336395 -32.7
      vertex -38.06306502223015 45.56930339336395 -34.1
    endloop
  endfacet
  facet normal -0.9969173335169774 0.0784590984742992 0
    outer loop
      vertex -38.100000001490116 45.100000001490116 -34.1
      vertex -38.100000001490116 45.100000001490116 -32.7
      vertex -38.06306502223015 45.56930339336395 -32.7
    endloop
  endfacet
  facet normal -1 0 0
    outer loop
      vertex -38.100000001490116 -45.100000001490116 -34.1
      vertex -38.100000001490116 45.100000001490116 -32.7
      vertex -38.100000001490116 45.100000001490116 -34.1
    endloop
  endfacet
  facet normal -1 0 0
    outer loop
      vertex -38.100000001490116 -45.100000001490116 -34.1
      vertex -38.100000001490116 -45.100000001490116 -32.7
      vertex -38.100000001490116 45.100000001490116 -32.7
    endloop
  endfacet
  facet normal -0.9969173335169774 -0.0784590984742992 0
    outer loop
      vertex -38.06306502223015 -45.56930339336395 -34.1
      vertex -38.100000001490116 -45.100000001490116 -32.7
      vertex -38.100000001490116 -45.100000001490116 -34.1
    endloop
  endfacet
  facet normal -0.9969173335169774 -0.0784590984742992 0
    outer loop
      vertex -38.06306502223015 -45.56930339336395 -34.1
      vertex -38.06306502223015 -45.56930339336395 -32.7
      vertex -38.100000001490116 -45.100000001490116 -32.7
    endloop
  endfacet
  facet normal -0.972369919923163 -0.2334453658323966 0
    outer loop
      vertex -37.95316954702139 -46.027050986886024 -34.1
      vertex -38.06306502223015 -45.56930339336395 -32.7
      vertex -38.06306502223015 -45.56930339336395 -34.1
    endloop
  endfacet
  facet normal -0.972369919923163 -0.2334453658323966 0
    outer loop
      vertex -37.95316954702139 -46.027050986886024 -34.1
      vertex -37.95316954702139 -46.027050986886024 -32.7
      vertex -38.06306502223015 -45.56930339336395 -32.7
    endloop
  endfacet
  facet normal -0.9238795341964182 -0.38268342829682256 0
    outer loop
      vertex -37.77301957458258 -46.46197149902582 -34.1
      vertex -37.95316954702139 -46.027050986886024 -32.7
      vertex -37.95316954702139 -46.027050986886024 -34.1
    endloop
  endfacet
  facet normal -0.9238795341964182 -0.38268342829682256 0
    outer loop
      vertex -37.77301957458258 -46.46197149902582 -34.1
      vertex -37.77301957458258 -46.46197149902582 -32.7
      vertex -37.95316954702139 -46.027050986886024 -32.7
    endloop
  endfacet
  facet normal -0.8526401654947238 -0.5224985628546074 0
    outer loop
      vertex -37.527050986886024 -46.86335575580597 -34.1
      vertex -37.77301957458258 -46.46197149902582 -32.7
      vertex -37.77301957458258 -46.46197149902582 -34.1
    endloop
  endfacet
  facet normal -0.8526401654947238 -0.5224985628546074 0
    outer loop
      vertex -37.527050986886024 -46.86335575580597 -34.1
      vertex -37.527050986886024 -46.86335575580597 -32.7
      vertex -37.77301957458258 -46.46197149902582 -32.7
    endloop
  endfacet
  facet normal -0.7604059673566436 -0.6494480462734546 0
    outer loop
      vertex -37.22132034599781 -47.22132034599781 -34.1
      vertex -37.527050986886024 -46.86335575580597 -32.7
      vertex -37.527050986886024 -46.86335575580597 -34.1
    endloop
  endfacet
  facet normal -0.7604059673566436 -0.6494480462734546 0
    outer loop
      vertex -37.22132034599781 -47.22132034599781 -34.1
      vertex -37.22132034599781 -47.22132034599781 -32.7
      vertex -37.527050986886024 -46.86335575580597 -32.7
    endloop
  endfacet
  facet normal -0.6494480462734546 -0.7604059673566436 0
    outer loop
      vertex -36.86335575580597 -47.527050986886024 -34.1
      vertex -37.22132034599781 -47.22132034599781 -32.7
      vertex -37.22132034599781 -47.22132034599781 -34.1
    endloop
  endfacet
  facet normal -0.6494480462734546 -0.7604059673566436 0
    outer loop
      vertex -36.86335575580597 -47.527050986886024 -34.1
      vertex -36.86335575580597 -47.527050986886024 -32.7
      vertex -37.22132034599781 -47.22132034599781 -32.7
    endloop
  endfacet
  facet normal -0.5224985628546074 -0.8526401654947237 0
    outer loop
      vertex -36.46197149902582 -47.77301957458258 -34.1
      vertex -36.86335575580597 -47.527050986886024 -32.7
      vertex -36.86335575580597 -47.527050986886024 -34.1
    endloop
  endfacet
  facet normal -0.5224985628546074 -0.8526401654947237 0
    outer loop
      vertex -36.46197149902582 -47.77301957458258 -34.1
      vertex -36.46197149902582 -47.77301957458258 -32.7
      vertex -36.86335575580597 -47.527050986886024 -32.7
    endloop
  endfacet
  facet normal -0.38268342829682256 -0.9238795341964182 0
    outer loop
      vertex -36.027050986886024 -47.95316954702139 -34.1
      vertex -36.46197149902582 -47.77301957458258 -32.7
      vertex -36.46197149902582 -47.77301957458258 -34.1
    endloop
  endfacet
  facet normal -0.38268342829682256 -0.9238795341964182 0
    outer loop
      vertex -36.027050986886024 -47.95316954702139 -34.1
      vertex -36.027050986886024 -47.95316954702139 -32.7
      vertex -36.46197149902582 -47.77301957458258 -32.7
    endloop
  endfacet
  facet normal -0.2334453658323966 -0.972369919923163 0
    outer loop
      vertex -35.56930339336395 -48.06306502223015 -34.1
      vertex -36.027050986886024 -47.95316954702139 -32.7
      vertex -36.027050986886024 -47.95316954702139 -34.1
    endloop
  endfacet
  facet normal -0.2334453658323966 -0.972369919923163 0
    outer loop
      vertex -35.56930339336395 -48.06306502223015 -34.1
      vertex -35.56930339336395 -48.06306502223015 -32.7
      vertex -36.027050986886024 -47.95316954702139 -32.7
    endloop
  endfacet
  facet normal -0.0784590984742992 -0.9969173335169774 0
    outer loop
      vertex -35.100000001490116 -48.100000001490116 -34.1
      vertex -35.56930339336395 -48.06306502223015 -32.7
      vertex -35.56930339336395 -48.06306502223015 -34.1
    endloop
  endfacet
  facet normal -0.0784590984742992 -0.9969173335169774 0
    outer loop
      vertex -35.100000001490116 -48.100000001490116 -34.1
      vertex -35.100000001490116 -48.100000001490116 -32.7
      vertex -35.56930339336395 -48.06306502223015 -32.7
    endloop
  endfacet
  facet normal 0 -1 0
    outer loop
      vertex 35.100000001490116 -48.100000001490116 -34.1
      vertex -35.100000001490116 -48.100000001490116 -32.7
      vertex -35.100000001490116 -48.100000001490116 -34.1
    endloop
  endfacet
  facet normal 0 -1 0
    outer loop
      vertex 35.100000001490116 -48.100000001490116 -34.1
      vertex 35.100000001490116 -48.100000001490116 -32.7
      vertex -35.100000001490116 -48.100000001490116 -32.7
    endloop
  endfacet
  facet normal 0.0784590984742992 -0.9969173335169774 0
    outer loop
      vertex 35.56930339336395 -48.06306502223015 -34.1
      vertex 35.100000001490116 -48.100000001490116 -32.7
      vertex 35.100000001490116 -48.100000001490116 -34.1
    endloop
  endfacet
  facet normal 0.0784590984742992 -0.9969173335169774 0
    outer loop
      vertex 35.56930339336395 -48.06306502223015 -34.1
      vertex 35.56930339336395 -48.06306502223015 -32.7
      vertex 35.100000001490116 -48.100000001490116 -32.7
    endloop
  endfacet
  facet normal 0.0784590984742992 0.9969173335169774 0
    outer loop
      vertex -33.36930339038372 -45.863065019249916 -34.1
      vertex -33.36930339038372 -45.863065019249916 -32.7
      vertex -32.899999998509884 -45.899999998509884 -34.1
    endloop
  endfacet
  facet normal 0.0784590984742992 0.9969173335169774 0
    outer loop
      vertex -32.899999998509884 -45.899999998509884 -32.7
      vertex -32.899999998509884 -45.899999998509884 -34.1
      vertex -33.36930339038372 -45.863065019249916 -32.7
    endloop
  endfacet
  facet normal 0.2334453658323966 0.972369919923163 0
    outer loop
      vertex -33.82705098390579 -45.75316954404116 -34.1
      vertex -33.82705098390579 -45.75316954404116 -32.7
      vertex -33.36930339038372 -45.863065019249916 -34.1
    endloop
  endfacet
  facet normal 0.2334453658323966 0.972369919923163 0
    outer loop
      vertex -33.36930339038372 -45.863065019249916 -32.7
      vertex -33.36930339038372 -45.863065019249916 -34.1
      vertex -33.82705098390579 -45.75316954404116 -32.7
    endloop
  endfacet
  facet normal 0.38268342829682256 0.9238795341964182 0
    outer loop
      vertex -34.26197149604559 -45.573019571602345 -34.1
      vertex -34.26197149604559 -45.573019571602345 -32.7
      vertex -33.82705098390579 -45.75316954404116 -34.1
    endloop
  endfacet
  facet normal 0.38268342829682256 0.9238795341964182 0
    outer loop
      vertex -33.82705098390579 -45.75316954404116 -32.7
      vertex -33.82705098390579 -45.75316954404116 -34.1
      vertex -34.26197149604559 -45.573019571602345 -32.7
    endloop
  endfacet
  facet normal 0.5224985628546074 0.8526401654947237 0
    outer loop
      vertex -34.66335575282574 -45.32705098390579 -34.1
      vertex -34.66335575282574 -45.32705098390579 -32.7
      vertex -34.26197149604559 -45.573019571602345 -34.1
    endloop
  endfacet
  facet normal 0.5224985628546074 0.8526401654947237 0
    outer loop
      vertex -34.26197149604559 -45.573019571602345 -32.7
      vertex -34.26197149604559 -45.573019571602345 -34.1
      vertex -34.66335575282574 -45.32705098390579 -32.7
    endloop
  endfacet
  facet normal 0.6494480462734546 0.7604059673566436 0
    outer loop
      vertex -35.02132034301758 -45.02132034301758 -34.1
      vertex -35.02132034301758 -45.02132034301758 -32.7
      vertex -34.66335575282574 -45.32705098390579 -34.1
    endloop
  endfacet
  facet normal 0.6494480462734546 0.7604059673566436 0
    outer loop
      vertex -34.66335575282574 -45.32705098390579 -32.7
      vertex -34.66335575282574 -45.32705098390579 -34.1
      vertex -35.02132034301758 -45.02132034301758 -32.7
    endloop
  endfacet
  facet normal 0.7604059673566436 0.6494480462734546 0
    outer loop
      vertex -35.32705098390579 -44.66335575282574 -34.1
      vertex -35.32705098390579 -44.66335575282574 -32.7
      vertex -35.02132034301758 -45.02132034301758 -34.1
    endloop
  endfacet
  facet normal 0.7604059673566436 0.6494480462734546 0
    outer loop
      vertex -35.02132034301758 -45.02132034301758 -32.7
      vertex -35.02132034301758 -45.02132034301758 -34.1
      vertex -35.32705098390579 -44.66335575282574 -32.7
    endloop
  endfacet
  facet normal 0.8526401654947238 0.5224985628546074 0
    outer loop
      vertex -35.573019571602345 -44.26197149604559 -34.1
      vertex -35.573019571602345 -44.26197149604559 -32.7
      vertex -35.32705098390579 -44.66335575282574 -34.1
    endloop
  endfacet
  facet normal 0.8526401654947238 0.5224985628546074 0
    outer loop
      vertex -35.32705098390579 -44.66335575282574 -32.7
      vertex -35.32705098390579 -44.66335575282574 -34.1
      vertex -35.573019571602345 -44.26197149604559 -32.7
    endloop
  endfacet
  facet normal 0.9238795341964182 0.38268342829682256 0
    outer loop
      vertex -35.75316954404116 -43.82705098390579 -34.1
      vertex -35.75316954404116 -43.82705098390579 -32.7
      vertex -35.573019571602345 -44.26197149604559 -34.1
    endloop
  endfacet
  facet normal 0.9238795341964182 0.38268342829682256 0
    outer loop
      vertex -35.573019571602345 -44.26197149604559 -32.7
      vertex -35.573019571602345 -44.26197149604559 -34.1
      vertex -35.75316954404116 -43.82705098390579 -32.7
    endloop
  endfacet
  facet normal 0.972369919923163 0.2334453658323966 0
    outer loop
      vertex -35.863065019249916 -43.36930339038372 -34.1
      vertex -35.863065019249916 -43.36930339038372 -32.7
      vertex -35.75316954404116 -43.82705098390579 -34.1
    endloop
  endfacet
  facet normal 0.972369919923163 0.2334453658323966 0
    outer loop
      vertex -35.75316954404116 -43.82705098390579 -32.7
      vertex -35.75316954404116 -43.82705098390579 -34.1
      vertex -35.863065019249916 -43.36930339038372 -32.7
    endloop
  endfacet
  facet normal 0.9969173335169774 0.0784590984742992 0
    outer loop
      vertex -35.899999998509884 -42.899999998509884 -34.1
      vertex -35.899999998509884 -42.899999998509884 -32.7
      vertex -35.863065019249916 -43.36930339038372 -34.1
    endloop
  endfacet
  facet normal 0.9969173335169774 0.0784590984742992 0
    outer loop
      vertex -35.863065019249916 -43.36930339038372 -32.7
      vertex -35.863065019249916 -43.36930339038372 -34.1
      vertex -35.899999998509884 -42.899999998509884 -32.7
    endloop
  endfacet
  facet normal 1 0 0
    outer loop
      vertex -35.899999998509884 42.899999998509884 -34.1
      vertex -35.899999998509884 42.899999998509884 -32.7
      vertex -35.899999998509884 -42.899999998509884 -34.1
    endloop
  endfacet
  facet normal 1 0 0
    outer loop
      vertex -35.899999998509884 -42.899999998509884 -32.7
      vertex -35.899999998509884 -42.899999998509884 -34.1
      vertex -35.899999998509884 42.899999998509884 -32.7
    endloop
  endfacet
  facet normal 0.9969173335169774 -0.0784590984742992 0
    outer loop
      vertex -35.863065019249916 43.36930339038372 -34.1
      vertex -35.863065019249916 43.36930339038372 -32.7
      vertex -35.899999998509884 42.899999998509884 -34.1
    endloop
  endfacet
  facet normal 0.9969173335169774 -0.0784590984742992 0
    outer loop
      vertex -35.899999998509884 42.899999998509884 -32.7
      vertex -35.899999998509884 42.899999998509884 -34.1
      vertex -35.863065019249916 43.36930339038372 -32.7
    endloop
  endfacet
  facet normal 0.972369919923163 -0.2334453658323966 0
    outer loop
      vertex -35.75316954404116 43.82705098390579 -34.1
      vertex -35.75316954404116 43.82705098390579 -32.7
      vertex -35.863065019249916 43.36930339038372 -34.1
    endloop
  endfacet
  facet normal 0.972369919923163 -0.2334453658323966 0
    outer loop
      vertex -35.863065019249916 43.36930339038372 -32.7
      vertex -35.863065019249916 43.36930339038372 -34.1
      vertex -35.75316954404116 43.82705098390579 -32.7
    endloop
  endfacet
  facet normal 0.9238795341964182 -0.38268342829682256 0
    outer loop
      vertex -35.573019571602345 44.26197149604559 -34.1
      vertex -35.573019571602345 44.26197149604559 -32.7
      vertex -35.75316954404116 43.82705098390579 -34.1
    endloop
  endfacet
  facet normal 0.9238795341964182 -0.38268342829682256 0
    outer loop
      vertex -35.75316954404116 43.82705098390579 -32.7
      vertex -35.75316954404116 43.82705098390579 -34.1
      vertex -35.573019571602345 44.26197149604559 -32.7
    endloop
  endfacet
  facet normal 0.8526401654947238 -0.5224985628546074 0
    outer loop
      vertex -35.32705098390579 44.66335575282574 -34.1
      vertex -35.32705098390579 44.66335575282574 -32.7
      vertex -35.573019571602345 44.26197149604559 -34.1
    endloop
  endfacet
  facet normal 0.8526401654947238 -0.5224985628546074 0
    outer loop
      vertex -35.573019571602345 44.26197149604559 -32.7
      vertex -35.573019571602345 44.26197149604559 -34.1
      vertex -35.32705098390579 44.66335575282574 -32.7
    endloop
  endfacet
  facet normal 0.7604059673566436 -0.6494480462734546 0
    outer loop
      vertex -35.02132034301758 45.02132034301758 -34.1
      vertex -35.02132034301758 45.02132034301758 -32.7
      vertex -35.32705098390579 44.66335575282574 -34.1
    endloop
  endfacet
  facet normal 0.7604059673566436 -0.6494480462734546 0
    outer loop
      vertex -35.32705098390579 44.66335575282574 -32.7
      vertex -35.32705098390579 44.66335575282574 -34.1
      vertex -35.02132034301758 45.02132034301758 -32.7
    endloop
  endfacet
  facet normal 0.6494480462734546 -0.7604059673566436 0
    outer loop
      vertex -34.66335575282574 45.32705098390579 -34.1
      vertex -34.66335575282574 45.32705098390579 -32.7
      vertex -35.02132034301758 45.02132034301758 -34.1
    endloop
  endfacet
  facet normal 0.6494480462734546 -0.7604059673566436 0
    outer loop
      vertex -35.02132034301758 45.02132034301758 -32.7
      vertex -35.02132034301758 45.02132034301758 -34.1
      vertex -34.66335575282574 45.32705098390579 -32.7
    endloop
  endfacet
  facet normal 0.5224985628546074 -0.8526401654947237 0
    outer loop
      vertex -34.26197149604559 45.573019571602345 -34.1
      vertex -34.26197149604559 45.573019571602345 -32.7
      vertex -34.66335575282574 45.32705098390579 -34.1
    endloop
  endfacet
  facet normal 0.5224985628546074 -0.8526401654947237 0
    outer loop
      vertex -34.66335575282574 45.32705098390579 -32.7
      vertex -34.66335575282574 45.32705098390579 -34.1
      vertex -34.26197149604559 45.573019571602345 -32.7
    endloop
  endfacet
  facet normal 0.38268342829682256 -0.9238795341964182 0
    outer loop
      vertex -33.82705098390579 45.75316954404116 -34.1
      vertex -33.82705098390579 45.75316954404116 -32.7
      vertex -34.26197149604559 45.573019571602345 -34.1
    endloop
  endfacet
  facet normal 0.38268342829682256 -0.9238795341964182 0
    outer loop
      vertex -34.26197149604559 45.573019571602345 -32.7
      vertex -34.26197149604559 45.573019571602345 -34.1
      vertex -33.82705098390579 45.75316954404116 -32.7
    endloop
  endfacet
  facet normal 0.2334453658323966 -0.972369919923163 0
    outer loop
      vertex -33.36930339038372 45.863065019249916 -34.1
      vertex -33.36930339038372 45.863065019249916 -32.7
      vertex -33.82705098390579 45.75316954404116 -34.1
    endloop
  endfacet
  facet normal 0.2334453658323966 -0.972369919923163 0
    outer loop
      vertex -33.82705098390579 45.75316954404116 -32.7
      vertex -33.82705098390579 45.75316954404116 -34.1
      vertex -33.36930339038372 45.863065019249916 -32.7
    endloop
  endfacet
  facet normal 0.0784590984742992 -0.9969173335169774 0
    outer loop
      vertex -32.899999998509884 45.899999998509884 -34.1
      vertex -32.899999998509884 45.899999998509884 -32.7
      vertex -33.36930339038372 45.863065019249916 -34.1
    endloop
  endfacet
  facet normal 0.0784590984742992 -0.9969173335169774 0
    outer loop
      vertex -33.36930339038372 45.863065019249916 -32.7
      vertex -33.36930339038372 45.863065019249916 -34.1
      vertex -32.899999998509884 45.899999998509884 -32.7
    endloop
  endfacet
  facet normal 0 -1 0
    outer loop
      vertex 32.899999998509884 45.899999998509884 -34.1
      vertex 32.899999998509884 45.899999998509884 -32.7
      vertex -32.899999998509884 45.899999998509884 -34.1
    endloop
  endfacet
  facet normal 0 -1 0
    outer loop
      vertex -32.899999998509884 45.899999998509884 -32.7
      vertex -32.899999998509884 45.899999998509884 -34.1
      vertex 32.899999998509884 45.899999998509884 -32.7
    endloop
  endfacet
  facet normal -0.0784590984742992 -0.9969173335169774 0
    outer loop
      vertex 33.36930339038372 45.863065019249916 -34.1
      vertex 33.36930339038372 45.863065019249916 -32.7
      vertex 32.899999998509884 45.899999998509884 -34.1
    endloop
  endfacet
  facet normal -0.0784590984742992 -0.9969173335169774 0
    outer loop
      vertex 32.899999998509884 45.899999998509884 -32.7
      vertex 32.899999998509884 45.899999998509884 -34.1
      vertex 33.36930339038372 45.863065019249916 -32.7
    endloop
  endfacet
  facet normal -0.2334453658323966 -0.972369919923163 0
    outer loop
      vertex 33.82705098390579 45.75316954404116 -34.1
      vertex 33.82705098390579 45.75316954404116 -32.7
      vertex 33.36930339038372 45.863065019249916 -34.1
    endloop
  endfacet
  facet normal -0.2334453658323966 -0.972369919923163 0
    outer loop
      vertex 33.36930339038372 45.863065019249916 -32.7
      vertex 33.36930339038372 45.863065019249916 -34.1
      vertex 33.82705098390579 45.75316954404116 -32.7
    endloop
  endfacet
  facet normal -0.38268342829682256 -0.9238795341964182 0
    outer loop
      vertex 34.26197149604559 45.573019571602345 -34.1
      vertex 34.26197149604559 45.573019571602345 -32.7
      vertex 33.82705098390579 45.75316954404116 -34.1
    endloop
  endfacet
  facet normal -0.38268342829682256 -0.9238795341964182 0
    outer loop
      vertex 33.82705098390579 45.75316954404116 -32.7
      vertex 33.82705098390579 45.75316954404116 -34.1
      vertex 34.26197149604559 45.573019571602345 -32.7
    endloop
  endfacet
  facet normal -0.5224985628546074 -0.8526401654947237 0
    outer loop
      vertex 34.66335575282574 45.32705098390579 -34.1
      vertex 34.66335575282574 45.32705098390579 -32.7
      vertex 34.26197149604559 45.573019571602345 -34.1
    endloop
  endfacet
  facet normal -0.5224985628546074 -0.8526401654947237 0
    outer loop
      vertex 34.26197149604559 45.573019571602345 -32.7
      vertex 34.26197149604559 45.573019571602345 -34.1
      vertex 34.66335575282574 45.32705098390579 -32.7
    endloop
  endfacet
  facet normal -0.6494480462734546 -0.7604059673566436 0
    outer loop
      vertex 35.02132034301758 45.02132034301758 -34.1
      vertex 35.02132034301758 45.02132034301758 -32.7
      vertex 34.66335575282574 45.32705098390579 -34.1
    endloop
  endfacet
  facet normal -0.6494480462734546 -0.7604059673566436 0
    outer loop
      vertex 34.66335575282574 45.32705098390579 -32.7
      vertex 34.66335575282574 45.32705098390579 -34.1
      vertex 35.02132034301758 45.02132034301758 -32.7
    endloop
  endfacet
  facet normal -0.7604059673566436 -0.6494480462734546 0
    outer loop
      vertex 35.32705098390579 44.66335575282574 -34.1
      vertex 35.32705098390579 44.66335575282574 -32.7
      vertex 35.02132034301758 45.02132034301758 -34.1
    endloop
  endfacet
  facet normal -0.7604059673566436 -0.6494480462734546 0
    outer loop
      vertex 35.02132034301758 45.02132034301758 -32.7
      vertex 35.02132034301758 45.02132034301758 -34.1
      vertex 35.32705098390579 44.66335575282574 -32.7
    endloop
  endfacet
  facet normal -0.8526401654947238 -0.5224985628546074 0
    outer loop
      vertex 35.573019571602345 44.26197149604559 -34.1
      vertex 35.573019571602345 44.26197149604559 -32.7
      vertex 35.32705098390579 44.66335575282574 -34.1
    endloop
  endfacet
  facet normal -0.8526401654947238 -0.5224985628546074 0
    outer loop
      vertex 35.32705098390579 44.66335575282574 -32.7
      vertex 35.32705098390579 44.66335575282574 -34.1
      vertex 35.573019571602345 44.26197149604559 -32.7
    endloop
  endfacet
  facet normal -0.9238795341964182 -0.38268342829682256 0
    outer loop
      vertex 35.75316954404116 43.82705098390579 -34.1
      vertex 35.75316954404116 43.82705098390579 -32.7
      vertex 35.573019571602345 44.26197149604559 -34.1
    endloop
  endfacet
  facet normal -0.9238795341964182 -0.38268342829682256 0
    outer loop
      vertex 35.573019571602345 44.26197149604559 -32.7
      vertex 35.573019571602345 44.26197149604559 -34.1
      vertex 35.75316954404116 43.82705098390579 -32.7
    endloop
  endfacet
  facet normal -0.972369919923163 -0.2334453658323966 0
    outer loop
      vertex 35.863065019249916 43.36930339038372 -34.1
      vertex 35.863065019249916 43.36930339038372 -32.7
      vertex 35.75316954404116 43.82705098390579 -34.1
    endloop
  endfacet
  facet normal -0.972369919923163 -0.2334453658323966 0
    outer loop
      vertex 35.75316954404116 43.82705098390579 -32.7
      vertex 35.75316954404116 43.82705098390579 -34.1
      vertex 35.863065019249916 43.36930339038372 -32.7
    endloop
  endfacet
  facet normal -0.9969173335169774 -0.0784590984742992 0
    outer loop
      vertex 35.899999998509884 42.899999998509884 -34.1
      vertex 35.899999998509884 42.899999998509884 -32.7
      vertex 35.863065019249916 43.36930339038372 -34.1
    endloop
  endfacet
  facet normal -0.9969173335169774 -0.0784590984742992 0
    outer loop
      vertex 35.863065019249916 43.36930339038372 -32.7
      vertex 35.863065019249916 43.36930339038372 -34.1
      vertex 35.899999998509884 42.899999998509884 -32.7
    endloop
  endfacet
  facet normal -1 0 0
    outer loop
      vertex 35.899999998509884 -42.899999998509884 -34.1
      vertex 35.899999998509884 -42.899999998509884 -32.7
      vertex 35.899999998509884 42.899999998509884 -34.1
    endloop
  endfacet
  facet normal -1 0 0
    outer loop
      vertex 35.899999998509884 42.899999998509884 -32.7
      vertex 35.899999998509884 42.899999998509884 -34.1
      vertex 35.899999998509884 -42.899999998509884 -32.7
    endloop
  endfacet
  facet normal -0.9969173335169774 0.0784590984742992 0
    outer loop
      vertex 35.863065019249916 -43.36930339038372 -34.1
      vertex 35.863065019249916 -43.36930339038372 -32.7
      vertex 35.899999998509884 -42.899999998509884 -34.1
    endloop
  endfacet
  facet normal -0.9969173335169774 0.0784590984742992 0
    outer loop
      vertex 35.899999998509884 -42.899999998509884 -32.7
      vertex 35.899999998509884 -42.899999998509884 -34.1
      vertex 35.863065019249916 -43.36930339038372 -32.7
    endloop
  endfacet
  facet normal -0.972369919923163 0.2334453658323966 0
    outer loop
      vertex 35.75316954404116 -43.82705098390579 -34.1
      vertex 35.75316954404116 -43.82705098390579 -32.7
      vertex 35.863065019249916 -43.36930339038372 -34.1
    endloop
  endfacet
  facet normal -0.972369919923163 0.2334453658323966 0
    outer loop
      vertex 35.863065019249916 -43.36930339038372 -32.7
      vertex 35.863065019249916 -43.36930339038372 -34.1
      vertex 35.75316954404116 -43.82705098390579 -32.7
    endloop
  endfacet
  facet normal -0.9238795341964182 0.38268342829682256 0
    outer loop
      vertex 35.573019571602345 -44.26197149604559 -34.1
      vertex 35.573019571602345 -44.26197149604559 -32.7
      vertex 35.75316954404116 -43.82705098390579 -34.1
    endloop
  endfacet
  facet normal -0.9238795341964182 0.38268342829682256 0
    outer loop
      vertex 35.75316954404116 -43.82705098390579 -32.7
      vertex 35.75316954404116 -43.82705098390579 -34.1
      vertex 35.573019571602345 -44.26197149604559 -32.7
    endloop
  endfacet
  facet normal -0.8526401654947238 0.5224985628546074 0
    outer loop
      vertex 35.32705098390579 -44.66335575282574 -34.1
      vertex 35.32705098390579 -44.66335575282574 -32.7
      vertex 35.573019571602345 -44.26197149604559 -34.1
    endloop
  endfacet
  facet normal -0.8526401654947238 0.5224985628546074 0
    outer loop
      vertex 35.573019571602345 -44.26197149604559 -32.7
      vertex 35.573019571602345 -44.26197149604559 -34.1
      vertex 35.32705098390579 -44.66335575282574 -32.7
    endloop
  endfacet
  facet normal -0.7604059673566436 0.6494480462734546 0
    outer loop
      vertex 35.02132034301758 -45.02132034301758 -34.1
      vertex 35.02132034301758 -45.02132034301758 -32.7
      vertex 35.32705098390579 -44.66335575282574 -34.1
    endloop
  endfacet
  facet normal -0.7604059673566436 0.6494480462734546 0
    outer loop
      vertex 35.32705098390579 -44.66335575282574 -32.7
      vertex 35.32705098390579 -44.66335575282574 -34.1
      vertex 35.02132034301758 -45.02132034301758 -32.7
    endloop
  endfacet
  facet normal -0.6494480462734546 0.7604059673566436 0
    outer loop
      vertex 34.66335575282574 -45.32705098390579 -34.1
      vertex 34.66335575282574 -45.32705098390579 -32.7
      vertex 35.02132034301758 -45.02132034301758 -34.1
    endloop
  endfacet
  facet normal -0.6494480462734546 0.7604059673566436 0
    outer loop
      vertex 35.02132034301758 -45.02132034301758 -32.7
      vertex 35.02132034301758 -45.02132034301758 -34.1
      vertex 34.66335575282574 -45.32705098390579 -32.7
    endloop
  endfacet
  facet normal -0.5224985628546074 0.8526401654947237 0
    outer loop
      vertex 34.26197149604559 -45.573019571602345 -34.1
      vertex 34.26197149604559 -45.573019571602345 -32.7
      vertex 34.66335575282574 -45.32705098390579 -34.1
    endloop
  endfacet
  facet normal -0.5224985628546074 0.8526401654947237 0
    outer loop
      vertex 34.66335575282574 -45.32705098390579 -32.7
      vertex 34.66335575282574 -45.32705098390579 -34.1
      vertex 34.26197149604559 -45.573019571602345 -32.7
    endloop
  endfacet
  facet normal -0.38268342829682256 0.9238795341964182 0
    outer loop
      vertex 33.82705098390579 -45.75316954404116 -34.1
      vertex 33.82705098390579 -45.75316954404116 -32.7
      vertex 34.26197149604559 -45.573019571602345 -34.1
    endloop
  endfacet
  facet normal -0.38268342829682256 0.9238795341964182 0
    outer loop
      vertex 34.26197149604559 -45.573019571602345 -32.7
      vertex 34.26197149604559 -45.573019571602345 -34.1
      vertex 33.82705098390579 -45.75316954404116 -32.7
    endloop
  endfacet
  facet normal -0.2334453658323966 0.972369919923163 0
    outer loop
      vertex 33.36930339038372 -45.863065019249916 -34.1
      vertex 33.36930339038372 -45.863065019249916 -32.7
      vertex 33.82705098390579 -45.75316954404116 -34.1
    endloop
  endfacet
  facet normal -0.2334453658323966 0.972369919923163 0
    outer loop
      vertex 33.82705098390579 -45.75316954404116 -32.7
      vertex 33.82705098390579 -45.75316954404116 -34.1
      vertex 33.36930339038372 -45.863065019249916 -32.7
    endloop
  endfacet
  facet normal -0.0784590984742992 0.9969173335169774 0
    outer loop
      vertex 32.899999998509884 -45.899999998509884 -34.1
      vertex 32.899999998509884 -45.899999998509884 -32.7
      vertex 33.36930339038372 -45.863065019249916 -34.1
    endloop
  endfacet
  facet normal -0.0784590984742992 0.9969173335169774 0
    outer loop
      vertex 33.36930339038372 -45.863065019249916 -32.7
      vertex 33.36930339038372 -45.863065019249916 -34.1
      vertex 32.899999998509884 -45.899999998509884 -32.7
    endloop
  endfacet
  facet normal 0 1 0
    outer loop
      vertex -32.899999998509884 -45.899999998509884 -34.1
      vertex -32.899999998509884 -45.899999998509884 -32.7
      vertex 32.899999998509884 -45.899999998509884 -34.1
    endloop
  endfacet
  facet normal 0 1 0
    outer loop
      vertex 32.899999998509884 -45.899999998509884 -32.7
      vertex 32.899999998509884 -45.899999998509884 -34.1
      vertex -32.899999998509884 -45.899999998509884 -32.7
    endloop
  endfacet
  facet normal 0 0 -1
    outer loop
      vertex 35.32705098390579 -44.66335575282574 -34.1
      vertex 37.95316954702139 -46.027050986886024 -34.1
      vertex 37.77301957458258 -46.46197149902582 -34.1
    endloop
  endfacet
  facet normal 0 0 -1
    outer loop
      vertex 38.06306502223015 -45.56930339336395 -34.1
      vertex 37.95316954702139 -46.027050986886024 -34.1
      vertex 35.32705098390579 -44.66335575282574 -34.1
    endloop
  endfacet
  facet normal 0 0 -1
    outer loop
      vertex 38.06306502223015 -45.56930339336395 -34.1
      vertex 35.32705098390579 -44.66335575282574 -34.1
      vertex 38.100000001490116 -45.100000001490116 -34.1
    endloop
  endfacet
  facet normal 0 0 -1
    outer loop
      vertex 35.75316954404116 -43.82705098390579 -34.1
      vertex 38.100000001490116 -45.100000001490116 -34.1
      vertex 35.573019571602345 -44.26197149604559 -34.1
    endloop
  endfacet
  facet normal 0 0 -1
    outer loop
      vertex 35.573019571602345 -44.26197149604559 -34.1
      vertex 38.100000001490116 -45.100000001490116 -34.1
      vertex 35.32705098390579 -44.66335575282574 -34.1
    endloop
  endfacet
  facet normal 0 0 -1
    outer loop
      vertex 35.32705098390579 -44.66335575282574 -34.1
      vertex 37.77301957458258 -46.46197149902582 -34.1
      vertex 35.02132034301758 -45.02132034301758 -34.1
    endloop
  endfacet
  facet normal 0 0 -1
    outer loop
      vertex 35.863065019249916 -43.36930339038372 -34.1
      vertex 38.100000001490116 -45.100000001490116 -34.1
      vertex 35.75316954404116 -43.82705098390579 -34.1
    endloop
  endfacet
  facet normal 0 0 -1
    outer loop
      vertex 35.863065019249916 -43.36930339038372 -34.1
      vertex 35.899999998509884 -42.899999998509884 -34.1
      vertex 38.100000001490116 -45.100000001490116 -34.1
    endloop
  endfacet
  facet normal 0 0 -1
    outer loop
      vertex 35.02132034301758 45.02132034301758 -34.1
      vertex 36.46197149902582 47.77301957458258 -34.1
      vertex 36.86335575580597 47.527050986886024 -34.1
    endloop
  endfacet
  facet normal 0 0 -1
    outer loop
      vertex 34.66335575282574 45.32705098390579 -34.1
      vertex 35.56930339336395 48.06306502223015 -34.1
      vertex 36.027050986886024 47.95316954702139 -34.1
    endloop
  endfacet
  facet normal 0 0 -1
    outer loop
      vertex 36.46197149902582 47.77301957458258 -34.1
      vertex 34.66335575282574 45.32705098390579 -34.1
      vertex 36.027050986886024 47.95316954702139 -34.1
    endloop
  endfacet
  facet normal 0 0 -1
    outer loop
      vertex 34.66335575282574 45.32705098390579 -34.1
      vertex 35.100000001490116 48.100000001490116 -34.1
      vertex 35.56930339336395 48.06306502223015 -34.1
    endloop
  endfacet
  facet normal 0 0 -1
    outer loop
      vertex 34.66335575282574 45.32705098390579 -34.1
      vertex 34.26197149604559 45.573019571602345 -34.1
      vertex 35.100000001490116 48.100000001490116 -34.1
    endloop
  endfacet
  facet normal 0 0 -1
    outer loop
      vertex 35.100000001490116 48.100000001490116 -34.1
      vertex 34.26197149604559 45.573019571602345 -34.1
      vertex 33.82705098390579 45.75316954404116 -34.1
    endloop
  endfacet
  facet normal 0 0 -1
    outer loop
      vertex 33.36930339038372 45.863065019249916 -34.1
      vertex 35.100000001490116 48.100000001490116 -34.1
      vertex 33.82705098390579 45.75316954404116 -34.1
    endloop
  endfacet
  facet normal 0 0 -1
    outer loop
      vertex 35.02132034301758 45.02132034301758 -34.1
      vertex 34.66335575282574 45.32705098390579 -34.1
      vertex 36.46197149902582 47.77301957458258 -34.1
    endloop
  endfacet
  facet normal 0 0 -1
    outer loop
      vertex 35.100000001490116 48.100000001490116 -34.1
      vertex 33.36930339038372 45.863065019249916 -34.1
      vertex 32.899999998509884 45.899999998509884 -34.1
    endloop
  endfacet
  facet normal 0 0 -1
    outer loop
      vertex -37.77301957458258 46.46197149902582 -34.1
      vertex -37.527050986886024 46.86335575580597 -34.1
      vertex -35.02132034301758 45.02132034301758 -34.1
    endloop
  endfacet
  facet normal 0 0 -1
    outer loop
      vertex -38.100000001490116 45.100000001490116 -34.1
      vertex -35.75316954404116 43.82705098390579 -34.1
      vertex -35.863065019249916 43.36930339038372 -34.1
    endloop
  endfacet
  facet normal 0 0 -1
    outer loop
      vertex -35.32705098390579 44.66335575282574 -34.1
      vertex -38.06306502223015 45.56930339336395 -34.1
      vertex -37.95316954702139 46.027050986886024 -34.1
    endloop
  endfacet
  facet normal 0 0 -1
    outer loop
      vertex -37.77301957458258 46.46197149902582 -34.1
      vertex -35.32705098390579 44.66335575282574 -34.1
      vertex -37.95316954702139 46.027050986886024 -34.1
    endloop
  endfacet
  facet normal 0 0 -1
    outer loop
      vertex -35.32705098390579 44.66335575282574 -34.1
      vertex -38.100000001490116 45.100000001490116 -34.1
      vertex -38.06306502223015 45.56930339336395 -34.1
    endloop
  endfacet
  facet normal 0 0 -1
    outer loop
      vertex -35.32705098390579 44.66335575282574 -34.1
      vertex -35.573019571602345 44.26197149604559 -34.1
      vertex -38.100000001490116 45.100000001490116 -34.1
    endloop
  endfacet
  facet normal 0 0 -1
    outer loop
      vertex -38.100000001490116 45.100000001490116 -34.1
      vertex -35.573019571602345 44.26197149604559 -34.1
      vertex -35.75316954404116 43.82705098390579 -34.1
    endloop
  endfacet
  facet normal 0 0 -1
    outer loop
      vertex -35.32705098390579 44.66335575282574 -34.1
      vertex -37.77301957458258 46.46197149902582 -34.1
      vertex -35.02132034301758 45.02132034301758 -34.1
    endloop
  endfacet
  facet normal 0 0 -1
    outer loop
      vertex -35.863065019249916 43.36930339038372 -34.1
      vertex -35.899999998509884 42.899999998509884 -34.1
      vertex -38.100000001490116 45.100000001490116 -34.1
    endloop
  endfacet
  facet normal 0 0 -1
    outer loop
      vertex -35.100000001490116 48.100000001490116 -34.1
      vertex 32.899999998509884 45.899999998509884 -34.1
      vertex -32.899999998509884 45.899999998509884 -34.1
    endloop
  endfacet
  facet normal 0 0 -1
    outer loop
      vertex -35.899999998509884 -42.899999998509884 -34.1
      vertex -38.100000001490116 45.100000001490116 -34.1
      vertex -35.899999998509884 42.899999998509884 -34.1
    endloop
  endfacet
  facet normal 0 0 -1
    outer loop
      vertex -37.527050986886024 -46.86335575580597 -34.1
      vertex -37.77301957458258 -46.46197149902582 -34.1
      vertex -35.02132034301758 -45.02132034301758 -34.1
    endloop
  endfacet
  facet normal 0 0 -1
    outer loop
      vertex 35.100000001490116 -48.100000001490116 -34.1
      vertex -35.100000001490116 -48.100000001490116 -34.1
      vertex 32.899999998509884 -45.899999998509884 -34.1
    endloop
  endfacet
  facet normal 0 0 -1
    outer loop
      vertex -34.66335575282574 -45.32705098390579 -34.1
      vertex -34.26197149604559 -45.573019571602345 -34.1
      vertex -35.100000001490116 -48.100000001490116 -34.1
    endloop
  endfacet
  facet normal 0 0 -1
    outer loop
      vertex -36.46197149902582 -47.77301957458258 -34.1
      vertex -34.66335575282574 -45.32705098390579 -34.1
      vertex -36.027050986886024 -47.95316954702139 -34.1
    endloop
  endfacet
  facet normal 0 0 -1
    outer loop
      vertex -34.66335575282574 -45.32705098390579 -34.1
      vertex -35.100000001490116 -48.100000001490116 -34.1
      vertex -35.56930339336395 -48.06306502223015 -34.1
    endloop
  endfacet
  facet normal 0 0 -1
    outer loop
      vertex -36.027050986886024 -47.95316954702139 -34.1
      vertex -34.66335575282574 -45.32705098390579 -34.1
      vertex -35.56930339336395 -48.06306502223015 -34.1
    endloop
  endfacet
  facet normal 0 0 -1
    outer loop
      vertex -35.100000001490116 -48.100000001490116 -34.1
      vertex -34.26197149604559 -45.573019571602345 -34.1
      vertex -33.82705098390579 -45.75316954404116 -34.1
    endloop
  endfacet
  facet normal 0 0 -1
    outer loop
      vertex -35.02132034301758 -45.02132034301758 -34.1
      vertex -34.66335575282574 -45.32705098390579 -34.1
      vertex -36.46197149902582 -47.77301957458258 -34.1
    endloop
  endfacet
  facet normal 0 0 -1
    outer loop
      vertex -33.82705098390579 -45.75316954404116 -34.1
      vertex -33.36930339038372 -45.863065019249916 -34.1
      vertex -35.100000001490116 -48.100000001490116 -34.1
    endloop
  endfacet
  facet normal 0 0 -1
    outer loop
      vertex -36.86335575580597 -47.527050986886024 -34.1
      vertex -35.02132034301758 -45.02132034301758 -34.1
      vertex -36.46197149902582 -47.77301957458258 -34.1
    endloop
  endfacet
  facet normal 0 0 -1
    outer loop
      vertex -32.899999998509884 -45.899999998509884 -34.1
      vertex -35.100000001490116 -48.100000001490116 -34.1
      vertex -33.36930339038372 -45.863065019249916 -34.1
    endloop
  endfacet
  facet normal 0 0 -1
    outer loop
      vertex 35.02132034301758 -45.02132034301758 -34.1
      vertex 37.77301957458258 -46.46197149902582 -34.1
      vertex 37.527050986886024 -46.86335575580597 -34.1
    endloop
  endfacet
  facet normal 0 0 -1
    outer loop
      vertex -37.22132034599781 -47.22132034599781 -34.1
      vertex -35.02132034301758 -45.02132034301758 -34.1
      vertex -36.86335575580597 -47.527050986886024 -34.1
    endloop
  endfacet
  facet normal 0 0 -1
    outer loop
      vertex -37.22132034599781 -47.22132034599781 -34.1
      vertex -37.527050986886024 -46.86335575580597 -34.1
      vertex -35.02132034301758 -45.02132034301758 -34.1
    endloop
  endfacet
  facet normal 0 0 -1
    outer loop
      vertex -35.02132034301758 -45.02132034301758 -34.1
      vertex -37.77301957458258 -46.46197149902582 -34.1
      vertex -35.32705098390579 -44.66335575282574 -34.1
    endloop
  endfacet
  facet normal 0 0 -1
    outer loop
      vertex -35.32705098390579 -44.66335575282574 -34.1
      vertex -37.77301957458258 -46.46197149902582 -34.1
      vertex -37.95316954702139 -46.027050986886024 -34.1
    endloop
  endfacet
  facet normal 0 0 -1
    outer loop
      vertex -38.06306502223015 -45.56930339336395 -34.1
      vertex -35.32705098390579 -44.66335575282574 -34.1
      vertex -37.95316954702139 -46.027050986886024 -34.1
    endloop
  endfacet
  facet normal 0 0 -1
    outer loop
      vertex -38.06306502223015 -45.56930339336395 -34.1
      vertex -38.100000001490116 -45.100000001490116 -34.1
      vertex -35.32705098390579 -44.66335575282574 -34.1
    endloop
  endfacet
  facet normal 0 0 -1
    outer loop
      vertex -35.32705098390579 -44.66335575282574 -34.1
      vertex -38.100000001490116 -45.100000001490116 -34.1
      vertex -35.573019571602345 -44.26197149604559 -34.1
    endloop
  endfacet
  facet normal 0 0 -1
    outer loop
      vertex -35.573019571602345 -44.26197149604559 -34.1
      vertex -38.100000001490116 -45.100000001490116 -34.1
      vertex -35.75316954404116 -43.82705098390579 -34.1
    endloop
  endfacet
  facet normal 0 0 -1
    outer loop
      vertex -35.75316954404116 -43.82705098390579 -34.1
      vertex -38.100000001490116 -45.100000001490116 -34.1
      vertex -35.863065019249916 -43.36930339038372 -34.1
    endloop
  endfacet
  facet normal 0 0 -1
    outer loop
      vertex -35.863065019249916 -43.36930339038372 -34.1
      vertex -38.100000001490116 -45.100000001490116 -34.1
      vertex -35.899999998509884 -42.899999998509884 -34.1
    endloop
  endfacet
  facet normal 0 0 -1
    outer loop
      vertex -35.899999998509884 -42.899999998509884 -34.1
      vertex -38.100000001490116 -45.100000001490116 -34.1
      vertex -38.100000001490116 45.100000001490116 -34.1
    endloop
  endfacet
  facet normal 0 0 -1
    outer loop
      vertex -35.100000001490116 48.100000001490116 -34.1
      vertex 35.100000001490116 48.100000001490116 -34.1
      vertex 32.899999998509884 45.899999998509884 -34.1
    endloop
  endfacet
  facet normal 0 0 -1
    outer loop
      vertex -35.02132034301758 45.02132034301758 -34.1
      vertex -37.22132034599781 47.22132034599781 -34.1
      vertex -36.86335575580597 47.527050986886024 -34.1
    endloop
  endfacet
  facet normal 0 0 -1
    outer loop
      vertex -37.527050986886024 46.86335575580597 -34.1
      vertex -37.22132034599781 47.22132034599781 -34.1
      vertex -35.02132034301758 45.02132034301758 -34.1
    endloop
  endfacet
  facet normal 0 0 -1
    outer loop
      vertex -36.46197149902582 47.77301957458258 -34.1
      vertex -35.02132034301758 45.02132034301758 -34.1
      vertex -36.86335575580597 47.527050986886024 -34.1
    endloop
  endfacet
  facet normal 0 0 -1
    outer loop
      vertex -36.46197149902582 47.77301957458258 -34.1
      vertex -34.66335575282574 45.32705098390579 -34.1
      vertex -35.02132034301758 45.02132034301758 -34.1
    endloop
  endfacet
  facet normal 0 0 -1
    outer loop
      vertex -36.46197149902582 47.77301957458258 -34.1
      vertex -36.027050986886024 47.95316954702139 -34.1
      vertex -34.66335575282574 45.32705098390579 -34.1
    endloop
  endfacet
  facet normal 0 0 -1
    outer loop
      vertex -34.66335575282574 45.32705098390579 -34.1
      vertex -36.027050986886024 47.95316954702139 -34.1
      vertex -35.56930339336395 48.06306502223015 -34.1
    endloop
  endfacet
  facet normal 0 0 -1
    outer loop
      vertex -35.100000001490116 48.100000001490116 -34.1
      vertex -34.66335575282574 45.32705098390579 -34.1
      vertex -35.56930339336395 48.06306502223015 -34.1
    endloop
  endfacet
  facet normal 0 0 -1
    outer loop
      vertex -35.100000001490116 48.100000001490116 -34.1
      vertex -34.26197149604559 45.573019571602345 -34.1
      vertex -34.66335575282574 45.32705098390579 -34.1
    endloop
  endfacet
  facet normal 0 0 -1
    outer loop
      vertex -35.100000001490116 48.100000001490116 -34.1
      vertex -33.82705098390579 45.75316954404116 -34.1
      vertex -34.26197149604559 45.573019571602345 -34.1
    endloop
  endfacet
  facet normal 0 0 -1
    outer loop
      vertex -35.100000001490116 48.100000001490116 -34.1
      vertex -33.36930339038372 45.863065019249916 -34.1
      vertex -33.82705098390579 45.75316954404116 -34.1
    endloop
  endfacet
  facet normal 0 0 -1
    outer loop
      vertex -35.100000001490116 48.100000001490116 -34.1
      vertex -32.899999998509884 45.899999998509884 -34.1
      vertex -33.36930339038372 45.863065019249916 -34.1
    endloop
  endfacet
  facet normal 0 0 -1
    outer loop
      vertex 37.22132034599781 47.22132034599781 -34.1
      vertex 35.02132034301758 45.02132034301758 -34.1
      vertex 36.86335575580597 47.527050986886024 -34.1
    endloop
  endfacet
  facet normal 0 0 -1
    outer loop
      vertex 37.22132034599781 47.22132034599781 -34.1
      vertex 37.527050986886024 46.86335575580597 -34.1
      vertex 35.02132034301758 45.02132034301758 -34.1
    endloop
  endfacet
  facet normal 0 0 -1
    outer loop
      vertex 35.02132034301758 45.02132034301758 -34.1
      vertex 37.527050986886024 46.86335575580597 -34.1
      vertex 37.77301957458258 46.46197149902582 -34.1
    endloop
  endfacet
  facet normal 0 0 -1
    outer loop
      vertex 35.32705098390579 44.66335575282574 -34.1
      vertex 35.02132034301758 45.02132034301758 -34.1
      vertex 37.77301957458258 46.46197149902582 -34.1
    endloop
  endfacet
  facet normal 0 0 -1
    outer loop
      vertex 37.95316954702139 46.027050986886024 -34.1
      vertex 35.32705098390579 44.66335575282574 -34.1
      vertex 37.77301957458258 46.46197149902582 -34.1
    endloop
  endfacet
  facet normal 0 0 -1
    outer loop
      vertex 37.95316954702139 46.027050986886024 -34.1
      vertex 38.06306502223015 45.56930339336395 -34.1
      vertex 35.32705098390579 44.66335575282574 -34.1
    endloop
  endfacet
  facet normal 0 0 -1
    outer loop
      vertex 35.32705098390579 44.66335575282574 -34.1
      vertex 38.06306502223015 45.56930339336395 -34.1
      vertex 38.100000001490116 45.100000001490116 -34.1
    endloop
  endfacet
  facet normal 0 0 -1
    outer loop
      vertex 35.573019571602345 44.26197149604559 -34.1
      vertex 35.32705098390579 44.66335575282574 -34.1
      vertex 38.100000001490116 45.100000001490116 -34.1
    endloop
  endfacet
  facet normal 0 0 -1
    outer loop
      vertex 35.75316954404116 43.82705098390579 -34.1
      vertex 35.573019571602345 44.26197149604559 -34.1
      vertex 38.100000001490116 45.100000001490116 -34.1
    endloop
  endfacet
  facet normal 0 0 -1
    outer loop
      vertex 35.863065019249916 43.36930339038372 -34.1
      vertex 35.75316954404116 43.82705098390579 -34.1
      vertex 38.100000001490116 45.100000001490116 -34.1
    endloop
  endfacet
  facet normal 0 0 -1
    outer loop
      vertex 38.100000001490116 -45.100000001490116 -34.1
      vertex 35.899999998509884 42.899999998509884 -34.1
      vertex 38.100000001490116 45.100000001490116 -34.1
    endloop
  endfacet
  facet normal 0 0 -1
    outer loop
      vertex 35.899999998509884 42.899999998509884 -34.1
      vertex 35.863065019249916 43.36930339038372 -34.1
      vertex 38.100000001490116 45.100000001490116 -34.1
    endloop
  endfacet
  facet normal 0 0 -1
    outer loop
      vertex 35.899999998509884 -42.899999998509884 -34.1
      vertex 35.899999998509884 42.899999998509884 -34.1
      vertex 38.100000001490116 -45.100000001490116 -34.1
    endloop
  endfacet
  facet normal 0 0 -1
    outer loop
      vertex 35.02132034301758 -45.02132034301758 -34.1
      vertex 37.22132034599781 -47.22132034599781 -34.1
      vertex 36.86335575580597 -47.527050986886024 -34.1
    endloop
  endfacet
  facet normal 0 0 -1
    outer loop
      vertex 37.527050986886024 -46.86335575580597 -34.1
      vertex 37.22132034599781 -47.22132034599781 -34.1
      vertex 35.02132034301758 -45.02132034301758 -34.1
    endloop
  endfacet
  facet normal 0 0 -1
    outer loop
      vertex 35.02132034301758 -45.02132034301758 -34.1
      vertex 36.86335575580597 -47.527050986886024 -34.1
      vertex 36.46197149902582 -47.77301957458258 -34.1
    endloop
  endfacet
  facet normal 0 0 -1
    outer loop
      vertex 34.66335575282574 -45.32705098390579 -34.1
      vertex 35.02132034301758 -45.02132034301758 -34.1
      vertex 36.46197149902582 -47.77301957458258 -34.1
    endloop
  endfacet
  facet normal 0 0 -1
    outer loop
      vertex 36.027050986886024 -47.95316954702139 -34.1
      vertex 34.66335575282574 -45.32705098390579 -34.1
      vertex 36.46197149902582 -47.77301957458258 -34.1
    endloop
  endfacet
  facet normal 0 0 -1
    outer loop
      vertex 36.027050986886024 -47.95316954702139 -34.1
      vertex 35.56930339336395 -48.06306502223015 -34.1
      vertex 34.66335575282574 -45.32705098390579 -34.1
    endloop
  endfacet
  facet normal 0 0 -1
    outer loop
      vertex 34.66335575282574 -45.32705098390579 -34.1
      vertex 35.56930339336395 -48.06306502223015 -34.1
      vertex 35.100000001490116 -48.100000001490116 -34.1
    endloop
  endfacet
  facet normal 0 0 -1
    outer loop
      vertex 34.26197149604559 -45.573019571602345 -34.1
      vertex 34.66335575282574 -45.32705098390579 -34.1
      vertex 35.100000001490116 -48.100000001490116 -34.1
    endloop
  endfacet
  facet normal 0 0 -1
    outer loop
      vertex 33.82705098390579 -45.75316954404116 -34.1
      vertex 34.26197149604559 -45.573019571602345 -34.1
      vertex 35.100000001490116 -48.100000001490116 -34.1
    endloop
  endfacet
  facet normal 0 0 -1
    outer loop
      vertex 33.36930339038372 -45.863065019249916 -34.1
      vertex 33.82705098390579 -45.75316954404116 -34.1
      vertex 35.100000001490116 -48.100000001490116 -34.1
    endloop
  endfacet
  facet normal 0 0 -1
    outer loop
      vertex -32.899999998509884 -45.899999998509884 -34.1
      vertex 32.899999998509884 -45.899999998509884 -34.1
      vertex -35.100000001490116 -48.100000001490116 -34.1
    endloop
  endfacet
  facet normal 0 0 -1
    outer loop
      vertex 32.899999998509884 -45.899999998509884 -34.1
      vertex 33.36930339038372 -45.863065019249916 -34.1
      vertex 35.100000001490116 -48.100000001490116 -34.1
    endloop
  endfacet
  facet normal 0 0 1
    outer loop
      vertex 37.77301957458258 -46.46197149902582 -32.7
      vertex 37.95316954702139 -46.027050986886024 -32.7
      vertex 35.32705098390579 -44.66335575282574 -32.7
    endloop
  endfacet
  facet normal 0 0 1
    outer loop
      vertex 35.32705098390579 -44.66335575282574 -32.7
      vertex 37.95316954702139 -46.027050986886024 -32.7
      vertex 38.06306502223015 -45.56930339336395 -32.7
    endloop
  endfacet
  facet normal 0 0 1
    outer loop
      vertex 38.100000001490116 -45.100000001490116 -32.7
      vertex 35.32705098390579 -44.66335575282574 -32.7
      vertex 38.06306502223015 -45.56930339336395 -32.7
    endloop
  endfacet
  facet normal 0 0 1
    outer loop
      vertex 35.573019571602345 -44.26197149604559 -32.7
      vertex 38.100000001490116 -45.100000001490116 -32.7
      vertex 35.75316954404116 -43.82705098390579 -32.7
    endloop
  endfacet
  facet normal 0 0 1
    outer loop
      vertex 35.32705098390579 -44.66335575282574 -32.7
      vertex 38.100000001490116 -45.100000001490116 -32.7
      vertex 35.573019571602345 -44.26197149604559 -32.7
    endloop
  endfacet
  facet normal 0 0 1
    outer loop
      vertex 35.02132034301758 -45.02132034301758 -32.7
      vertex 37.77301957458258 -46.46197149902582 -32.7
      vertex 35.32705098390579 -44.66335575282574 -32.7
    endloop
  endfacet
  facet normal 0 0 1
    outer loop
      vertex 35.75316954404116 -43.82705098390579 -32.7
      vertex 38.100000001490116 -45.100000001490116 -32.7
      vertex 35.863065019249916 -43.36930339038372 -32.7
    endloop
  endfacet
  facet normal 0 0 1
    outer loop
      vertex 38.100000001490116 -45.100000001490116 -32.7
      vertex 35.899999998509884 -42.899999998509884 -32.7
      vertex 35.863065019249916 -43.36930339038372 -32.7
    endloop
  endfacet
  facet normal 0 0 1
    outer loop
      vertex 36.86335575580597 47.527050986886024 -32.7
      vertex 36.46197149902582 47.77301957458258 -32.7
      vertex 35.02132034301758 45.02132034301758 -32.7
    endloop
  endfacet
  facet normal 0 0 1
    outer loop
      vertex 36.027050986886024 47.95316954702139 -32.7
      vertex 35.56930339336395 48.06306502223015 -32.7
      vertex 34.66335575282574 45.32705098390579 -32.7
    endloop
  endfacet
  facet normal 0 0 1
    outer loop
      vertex 36.027050986886024 47.95316954702139 -32.7
      vertex 34.66335575282574 45.32705098390579 -32.7
      vertex 36.46197149902582 47.77301957458258 -32.7
    endloop
  endfacet
  facet normal 0 0 1
    outer loop
      vertex 35.56930339336395 48.06306502223015 -32.7
      vertex 35.100000001490116 48.100000001490116 -32.7
      vertex 34.66335575282574 45.32705098390579 -32.7
    endloop
  endfacet
  facet normal 0 0 1
    outer loop
      vertex 35.100000001490116 48.100000001490116 -32.7
      vertex 34.26197149604559 45.573019571602345 -32.7
      vertex 34.66335575282574 45.32705098390579 -32.7
    endloop
  endfacet
  facet normal 0 0 1
    outer loop
      vertex 33.82705098390579 45.75316954404116 -32.7
      vertex 34.26197149604559 45.573019571602345 -32.7
      vertex 35.100000001490116 48.100000001490116 -32.7
    endloop
  endfacet
  facet normal 0 0 1
    outer loop
      vertex 33.82705098390579 45.75316954404116 -32.7
      vertex 35.100000001490116 48.100000001490116 -32.7
      vertex 33.36930339038372 45.863065019249916 -32.7
    endloop
  endfacet
  facet normal 0 0 1
    outer loop
      vertex 36.46197149902582 47.77301957458258 -32.7
      vertex 34.66335575282574 45.32705098390579 -32.7
      vertex 35.02132034301758 45.02132034301758 -32.7
    endloop
  endfacet
  facet normal 0 0 1
    outer loop
      vertex 32.899999998509884 45.899999998509884 -32.7
      vertex 33.36930339038372 45.863065019249916 -32.7
      vertex 35.100000001490116 48.100000001490116 -32.7
    endloop
  endfacet
  facet normal 0 0 1
    outer loop
      vertex -35.02132034301758 45.02132034301758 -32.7
      vertex -37.527050986886024 46.86335575580597 -32.7
      vertex -37.77301957458258 46.46197149902582 -32.7
    endloop
  endfacet
  facet normal 0 0 1
    outer loop
      vertex -35.863065019249916 43.36930339038372 -32.7
      vertex -35.75316954404116 43.82705098390579 -32.7
      vertex -38.100000001490116 45.100000001490116 -32.7
    endloop
  endfacet
  facet normal 0 0 1
    outer loop
      vertex -37.95316954702139 46.027050986886024 -32.7
      vertex -38.06306502223015 45.56930339336395 -32.7
      vertex -35.32705098390579 44.66335575282574 -32.7
    endloop
  endfacet
  facet normal 0 0 1
    outer loop
      vertex -37.95316954702139 46.027050986886024 -32.7
      vertex -35.32705098390579 44.66335575282574 -32.7
      vertex -37.77301957458258 46.46197149902582 -32.7
    endloop
  endfacet
  facet normal 0 0 1
    outer loop
      vertex -38.06306502223015 45.56930339336395 -32.7
      vertex -38.100000001490116 45.100000001490116 -32.7
      vertex -35.32705098390579 44.66335575282574 -32.7
    endloop
  endfacet
  facet normal 0 0 1
    outer loop
      vertex -38.100000001490116 45.100000001490116 -32.7
      vertex -35.573019571602345 44.26197149604559 -32.7
      vertex -35.32705098390579 44.66335575282574 -32.7
    endloop
  endfacet
  facet normal 0 0 1
    outer loop
      vertex -35.75316954404116 43.82705098390579 -32.7
      vertex -35.573019571602345 44.26197149604559 -32.7
      vertex -38.100000001490116 45.100000001490116 -32.7
    endloop
  endfacet
  facet normal 0 0 1
    outer loop
      vertex -35.02132034301758 45.02132034301758 -32.7
      vertex -37.77301957458258 46.46197149902582 -32.7
      vertex -35.32705098390579 44.66335575282574 -32.7
    endloop
  endfacet
  facet normal 0 0 1
    outer loop
      vertex -38.100000001490116 45.100000001490116 -32.7
      vertex -35.899999998509884 42.899999998509884 -32.7
      vertex -35.863065019249916 43.36930339038372 -32.7
    endloop
  endfacet
  facet normal 0 0 1
    outer loop
      vertex -32.899999998509884 45.899999998509884 -32.7
      vertex 32.899999998509884 45.899999998509884 -32.7
      vertex -35.100000001490116 48.100000001490116 -32.7
    endloop
  endfacet
  facet normal 0 0 1
    outer loop
      vertex -35.899999998509884 42.899999998509884 -32.7
      vertex -38.100000001490116 45.100000001490116 -32.7
      vertex -35.899999998509884 -42.899999998509884 -32.7
    endloop
  endfacet
  facet normal 0 0 1
    outer loop
      vertex -35.02132034301758 -45.02132034301758 -32.7
      vertex -37.77301957458258 -46.46197149902582 -32.7
      vertex -37.527050986886024 -46.86335575580597 -32.7
    endloop
  endfacet
  facet normal 0 0 1
    outer loop
      vertex 32.899999998509884 -45.899999998509884 -32.7
      vertex -35.100000001490116 -48.100000001490116 -32.7
      vertex 35.100000001490116 -48.100000001490116 -32.7
    endloop
  endfacet
  facet normal 0 0 1
    outer loop
      vertex -35.100000001490116 -48.100000001490116 -32.7
      vertex -34.26197149604559 -45.573019571602345 -32.7
      vertex -34.66335575282574 -45.32705098390579 -32.7
    endloop
  endfacet
  facet normal 0 0 1
    outer loop
      vertex -36.027050986886024 -47.95316954702139 -32.7
      vertex -34.66335575282574 -45.32705098390579 -32.7
      vertex -36.46197149902582 -47.77301957458258 -32.7
    endloop
  endfacet
  facet normal 0 0 1
    outer loop
      vertex -35.56930339336395 -48.06306502223015 -32.7
      vertex -35.100000001490116 -48.100000001490116 -32.7
      vertex -34.66335575282574 -45.32705098390579 -32.7
    endloop
  endfacet
  facet normal 0 0 1
    outer loop
      vertex -35.56930339336395 -48.06306502223015 -32.7
      vertex -34.66335575282574 -45.32705098390579 -32.7
      vertex -36.027050986886024 -47.95316954702139 -32.7
    endloop
  endfacet
  facet normal 0 0 1
    outer loop
      vertex -33.82705098390579 -45.75316954404116 -32.7
      vertex -34.26197149604559 -45.573019571602345 -32.7
      vertex -35.100000001490116 -48.100000001490116 -32.7
    endloop
  endfacet
  facet normal 0 0 1
    outer loop
      vertex -36.46197149902582 -47.77301957458258 -32.7
      vertex -34.66335575282574 -45.32705098390579 -32.7
      vertex -35.02132034301758 -45.02132034301758 -32.7
    endloop
  endfacet
  facet normal 0 0 1
    outer loop
      vertex -35.100000001490116 -48.100000001490116 -32.7
      vertex -33.36930339038372 -45.863065019249916 -32.7
      vertex -33.82705098390579 -45.75316954404116 -32.7
    endloop
  endfacet
  facet normal 0 0 1
    outer loop
      vertex -36.46197149902582 -47.77301957458258 -32.7
      vertex -35.02132034301758 -45.02132034301758 -32.7
      vertex -36.86335575580597 -47.527050986886024 -32.7
    endloop
  endfacet
  facet normal 0 0 1
    outer loop
      vertex -33.36930339038372 -45.863065019249916 -32.7
      vertex -35.100000001490116 -48.100000001490116 -32.7
      vertex -32.899999998509884 -45.899999998509884 -32.7
    endloop
  endfacet
  facet normal 0 0 1
    outer loop
      vertex 37.527050986886024 -46.86335575580597 -32.7
      vertex 37.77301957458258 -46.46197149902582 -32.7
      vertex 35.02132034301758 -45.02132034301758 -32.7
    endloop
  endfacet
  facet normal 0 0 1
    outer loop
      vertex -36.86335575580597 -47.527050986886024 -32.7
      vertex -35.02132034301758 -45.02132034301758 -32.7
      vertex -37.22132034599781 -47.22132034599781 -32.7
    endloop
  endfacet
  facet normal 0 0 1
    outer loop
      vertex -35.02132034301758 -45.02132034301758 -32.7
      vertex -37.527050986886024 -46.86335575580597 -32.7
      vertex -37.22132034599781 -47.22132034599781 -32.7
    endloop
  endfacet
  facet normal 0 0 1
    outer loop
      vertex -35.32705098390579 -44.66335575282574 -32.7
      vertex -37.77301957458258 -46.46197149902582 -32.7
      vertex -35.02132034301758 -45.02132034301758 -32.7
    endloop
  endfacet
  facet normal 0 0 1
    outer loop
      vertex -37.95316954702139 -46.027050986886024 -32.7
      vertex -37.77301957458258 -46.46197149902582 -32.7
      vertex -35.32705098390579 -44.66335575282574 -32.7
    endloop
  endfacet
  facet normal 0 0 1
    outer loop
      vertex -37.95316954702139 -46.027050986886024 -32.7
      vertex -35.32705098390579 -44.66335575282574 -32.7
      vertex -38.06306502223015 -45.56930339336395 -32.7
    endloop
  endfacet
  facet normal 0 0 1
    outer loop
      vertex -35.32705098390579 -44.66335575282574 -32.7
      vertex -38.100000001490116 -45.100000001490116 -32.7
      vertex -38.06306502223015 -45.56930339336395 -32.7
    endloop
  endfacet
  facet normal 0 0 1
    outer loop
      vertex -35.573019571602345 -44.26197149604559 -32.7
      vertex -38.100000001490116 -45.100000001490116 -32.7
      vertex -35.32705098390579 -44.66335575282574 -32.7
    endloop
  endfacet
  facet normal 0 0 1
    outer loop
      vertex -35.75316954404116 -43.82705098390579 -32.7
      vertex -38.100000001490116 -45.100000001490116 -32.7
      vertex -35.573019571602345 -44.26197149604559 -32.7
    endloop
  endfacet
  facet normal 0 0 1
    outer loop
      vertex -35.863065019249916 -43.36930339038372 -32.7
      vertex -38.100000001490116 -45.100000001490116 -32.7
      vertex -35.75316954404116 -43.82705098390579 -32.7
    endloop
  endfacet
  facet normal 0 0 1
    outer loop
      vertex -35.899999998509884 -42.899999998509884 -32.7
      vertex -38.100000001490116 -45.100000001490116 -32.7
      vertex -35.863065019249916 -43.36930339038372 -32.7
    endloop
  endfacet
  facet normal 0 0 1
    outer loop
      vertex -38.100000001490116 45.100000001490116 -32.7
      vertex -38.100000001490116 -45.100000001490116 -32.7
      vertex -35.899999998509884 -42.899999998509884 -32.7
    endloop
  endfacet
  facet normal 0 0 1
    outer loop
      vertex 32.899999998509884 45.899999998509884 -32.7
      vertex 35.100000001490116 48.100000001490116 -32.7
      vertex -35.100000001490116 48.100000001490116 -32.7
    endloop
  endfacet
  facet normal 0 0 1
    outer loop
      vertex -36.86335575580597 47.527050986886024 -32.7
      vertex -37.22132034599781 47.22132034599781 -32.7
      vertex -35.02132034301758 45.02132034301758 -32.7
    endloop
  endfacet
  facet normal 0 0 1
    outer loop
      vertex -35.02132034301758 45.02132034301758 -32.7
      vertex -37.22132034599781 47.22132034599781 -32.7
      vertex -37.527050986886024 46.86335575580597 -32.7
    endloop
  endfacet
  facet normal 0 0 1
    outer loop
      vertex -36.86335575580597 47.527050986886024 -32.7
      vertex -35.02132034301758 45.02132034301758 -32.7
      vertex -36.46197149902582 47.77301957458258 -32.7
    endloop
  endfacet
  facet normal 0 0 1
    outer loop
      vertex -35.02132034301758 45.02132034301758 -32.7
      vertex -34.66335575282574 45.32705098390579 -32.7
      vertex -36.46197149902582 47.77301957458258 -32.7
    endloop
  endfacet
  facet normal 0 0 1
    outer loop
      vertex -34.66335575282574 45.32705098390579 -32.7
      vertex -36.027050986886024 47.95316954702139 -32.7
      vertex -36.46197149902582 47.77301957458258 -32.7
    endloop
  endfacet
  facet normal 0 0 1
    outer loop
      vertex -35.56930339336395 48.06306502223015 -32.7
      vertex -36.027050986886024 47.95316954702139 -32.7
      vertex -34.66335575282574 45.32705098390579 -32.7
    endloop
  endfacet
  facet normal 0 0 1
    outer loop
      vertex -35.56930339336395 48.06306502223015 -32.7
      vertex -34.66335575282574 45.32705098390579 -32.7
      vertex -35.100000001490116 48.100000001490116 -32.7
    endloop
  endfacet
  facet normal 0 0 1
    outer loop
      vertex -34.66335575282574 45.32705098390579 -32.7
      vertex -34.26197149604559 45.573019571602345 -32.7
      vertex -35.100000001490116 48.100000001490116 -32.7
    endloop
  endfacet
  facet normal 0 0 1
    outer loop
      vertex -34.26197149604559 45.573019571602345 -32.7
      vertex -33.82705098390579 45.75316954404116 -32.7
      vertex -35.100000001490116 48.100000001490116 -32.7
    endloop
  endfacet
  facet normal 0 0 1
    outer loop
      vertex -33.82705098390579 45.75316954404116 -32.7
      vertex -33.36930339038372 45.863065019249916 -32.7
      vertex -35.100000001490116 48.100000001490116 -32.7
    endloop
  endfacet
  facet normal 0 0 1
    outer loop
      vertex -33.36930339038372 45.863065019249916 -32.7
      vertex -32.899999998509884 45.899999998509884 -32.7
      vertex -35.100000001490116 48.100000001490116 -32.7
    endloop
  endfacet
  facet normal 0 0 1
    outer loop
      vertex 36.86335575580597 47.527050986886024 -32.7
      vertex 35.02132034301758 45.02132034301758 -32.7
      vertex 37.22132034599781 47.22132034599781 -32.7
    endloop
  endfacet
  facet normal 0 0 1
    outer loop
      vertex 35.02132034301758 45.02132034301758 -32.7
      vertex 37.527050986886024 46.86335575580597 -32.7
      vertex 37.22132034599781 47.22132034599781 -32.7
    endloop
  endfacet
  facet normal 0 0 1
    outer loop
      vertex 37.77301957458258 46.46197149902582 -32.7
      vertex 37.527050986886024 46.86335575580597 -32.7
      vertex 35.02132034301758 45.02132034301758 -32.7
    endloop
  endfacet
  facet normal 0 0 1
    outer loop
      vertex 37.77301957458258 46.46197149902582 -32.7
      vertex 35.02132034301758 45.02132034301758 -32.7
      vertex 35.32705098390579 44.66335575282574 -32.7
    endloop
  endfacet
  facet normal 0 0 1
    outer loop
      vertex 37.77301957458258 46.46197149902582 -32.7
      vertex 35.32705098390579 44.66335575282574 -32.7
      vertex 37.95316954702139 46.027050986886024 -32.7
    endloop
  endfacet
  facet normal 0 0 1
    outer loop
      vertex 35.32705098390579 44.66335575282574 -32.7
      vertex 38.06306502223015 45.56930339336395 -32.7
      vertex 37.95316954702139 46.027050986886024 -32.7
    endloop
  endfacet
  facet normal 0 0 1
    outer loop
      vertex 38.100000001490116 45.100000001490116 -32.7
      vertex 38.06306502223015 45.56930339336395 -32.7
      vertex 35.32705098390579 44.66335575282574 -32.7
    endloop
  endfacet
  facet normal 0 0 1
    outer loop
      vertex 38.100000001490116 45.100000001490116 -32.7
      vertex 35.32705098390579 44.66335575282574 -32.7
      vertex 35.573019571602345 44.26197149604559 -32.7
    endloop
  endfacet
  facet normal 0 0 1
    outer loop
      vertex 38.100000001490116 45.100000001490116 -32.7
      vertex 35.573019571602345 44.26197149604559 -32.7
      vertex 35.75316954404116 43.82705098390579 -32.7
    endloop
  endfacet
  facet normal 0 0 1
    outer loop
      vertex 38.100000001490116 45.100000001490116 -32.7
      vertex 35.75316954404116 43.82705098390579 -32.7
      vertex 35.863065019249916 43.36930339038372 -32.7
    endloop
  endfacet
  facet normal 0 0 1
    outer loop
      vertex 38.100000001490116 45.100000001490116 -32.7
      vertex 35.899999998509884 42.899999998509884 -32.7
      vertex 38.100000001490116 -45.100000001490116 -32.7
    endloop
  endfacet
  facet normal 0 0 1
    outer loop
      vertex 38.100000001490116 45.100000001490116 -32.7
      vertex 35.863065019249916 43.36930339038372 -32.7
      vertex 35.899999998509884 42.899999998509884 -32.7
    endloop
  endfacet
  facet normal 0 0 1
    outer loop
      vertex 38.100000001490116 -45.100000001490116 -32.7
      vertex 35.899999998509884 42.899999998509884 -32.7
      vertex 35.899999998509884 -42.899999998509884 -32.7
    endloop
  endfacet
  facet normal 0 0 1
    outer loop
      vertex 36.86335575580597 -47.527050986886024 -32.7
      vertex 37.22132034599781 -47.22132034599781 -32.7
      vertex 35.02132034301758 -45.02132034301758 -32.7
    endloop
  endfacet
  facet normal 0 0 1
    outer loop
      vertex 35.02132034301758 -45.02132034301758 -32.7
      vertex 37.22132034599781 -47.22132034599781 -32.7
      vertex 37.527050986886024 -46.86335575580597 -32.7
    endloop
  endfacet
  facet normal 0 0 1
    outer loop
      vertex 36.46197149902582 -47.77301957458258 -32.7
      vertex 36.86335575580597 -47.527050986886024 -32.7
      vertex 35.02132034301758 -45.02132034301758 -32.7
    endloop
  endfacet
  facet normal 0 0 1
    outer loop
      vertex 36.46197149902582 -47.77301957458258 -32.7
      vertex 35.02132034301758 -45.02132034301758 -32.7
      vertex 34.66335575282574 -45.32705098390579 -32.7
    endloop
  endfacet
  facet normal 0 0 1
    outer loop
      vertex 36.46197149902582 -47.77301957458258 -32.7
      vertex 34.66335575282574 -45.32705098390579 -32.7
      vertex 36.027050986886024 -47.95316954702139 -32.7
    endloop
  endfacet
  facet normal 0 0 1
    outer loop
      vertex 34.66335575282574 -45.32705098390579 -32.7
      vertex 35.56930339336395 -48.06306502223015 -32.7
      vertex 36.027050986886024 -47.95316954702139 -32.7
    endloop
  endfacet
  facet normal 0 0 1
    outer loop
      vertex 35.100000001490116 -48.100000001490116 -32.7
      vertex 35.56930339336395 -48.06306502223015 -32.7
      vertex 34.66335575282574 -45.32705098390579 -32.7
    endloop
  endfacet
  facet normal 0 0 1
    outer loop
      vertex 35.100000001490116 -48.100000001490116 -32.7
      vertex 34.66335575282574 -45.32705098390579 -32.7
      vertex 34.26197149604559 -45.573019571602345 -32.7
    endloop
  endfacet
  facet normal 0 0 1
    outer loop
      vertex 35.100000001490116 -48.100000001490116 -32.7
      vertex 34.26197149604559 -45.573019571602345 -32.7
      vertex 33.82705098390579 -45.75316954404116 -32.7
    endloop
  endfacet
  facet normal 0 0 1
    outer loop
      vertex 35.100000001490116 -48.100000001490116 -32.7
      vertex 33.82705098390579 -45.75316954404116 -32.7
      vertex 33.36930339038372 -45.863065019249916 -32.7
    endloop
  endfacet
  facet normal 0 0 1
    outer loop
      vertex -35.100000001490116 -48.100000001490116 -32.7
      vertex 32.899999998509884 -45.899999998509884 -32.7
      vertex -32.899999998509884 -45.899999998509884 -32.7
    endloop
  endfacet
  facet normal 0 0 1
    outer loop
      vertex 35.100000001490116 -48.100000001490116 -32.7
      vertex 33.36930339038372 -45.863065019249916 -32.7
      vertex 32.899999998509884 -45.899999998509884 -32.7
    endloop
  endfacet
endsolid OpenSCAD_Model
